<mxfile host="app.diagrams.net" agent="Mozilla/5.0 (Windows NT 10.0; Win64; x64) AppleWebKit/537.36 (KHTML, like Gecko) Chrome/133.0.0.0 Safari/537.36" version="26.0.16">
  <diagram name="Page-1" id="y0Spciga-5stfBS5supv">
    <mxGraphModel dx="276" dy="148" grid="1" gridSize="10" guides="1" tooltips="1" connect="1" arrows="1" fold="1" page="1" pageScale="1" pageWidth="827" pageHeight="1169" math="0" shadow="0">
      <root>
        <mxCell id="0" />
        <mxCell id="1" parent="0" />
        <mxCell id="P0X2a0iMQnR3sYJKgMbi-3" value="Train" style="rounded=1;whiteSpace=wrap;html=1;fillColor=#d5e8d4;strokeColor=#82b366;fontSize=10;" vertex="1" parent="1">
          <mxGeometry x="240" y="90" width="40" height="20" as="geometry" />
        </mxCell>
        <mxCell id="P0X2a0iMQnR3sYJKgMbi-4" value="Dev" style="rounded=1;whiteSpace=wrap;html=1;fillColor=#dae8fc;strokeColor=#6c8ebf;fontSize=10;" vertex="1" parent="1">
          <mxGeometry x="280" y="90" width="40" height="20" as="geometry" />
        </mxCell>
        <mxCell id="P0X2a0iMQnR3sYJKgMbi-5" value="" style="rounded=1;whiteSpace=wrap;html=1;" vertex="1" parent="1">
          <mxGeometry x="320" y="90" width="40" height="20" as="geometry" />
        </mxCell>
        <mxCell id="P0X2a0iMQnR3sYJKgMbi-6" value="Test" style="rounded=1;whiteSpace=wrap;html=1;fillColor=#f8cecc;strokeColor=#b85450;fontSize=10;" vertex="1" parent="1">
          <mxGeometry x="360" y="90" width="40" height="20" as="geometry" />
        </mxCell>
        <mxCell id="P0X2a0iMQnR3sYJKgMbi-20" value="" style="endArrow=none;html=1;rounded=0;" edge="1" parent="1">
          <mxGeometry width="50" height="50" relative="1" as="geometry">
            <mxPoint x="360" y="150" as="sourcePoint" />
            <mxPoint x="360" y="80" as="targetPoint" />
          </mxGeometry>
        </mxCell>
        <mxCell id="P0X2a0iMQnR3sYJKgMbi-21" value="Test" style="rounded=1;whiteSpace=wrap;html=1;fillColor=#f8cecc;strokeColor=#b85450;fontSize=10;" vertex="1" parent="1">
          <mxGeometry x="360" y="120" width="40" height="20" as="geometry" />
        </mxCell>
        <mxCell id="P0X2a0iMQnR3sYJKgMbi-22" value="Dev" style="rounded=1;whiteSpace=wrap;html=1;fillColor=#dae8fc;strokeColor=#6c8ebf;fontSize=10;" vertex="1" parent="1">
          <mxGeometry x="320" y="120" width="40" height="20" as="geometry" />
        </mxCell>
        <mxCell id="P0X2a0iMQnR3sYJKgMbi-24" value="Train" style="rounded=1;whiteSpace=wrap;html=1;fillColor=#d5e8d4;strokeColor=#82b366;fontSize=10;" vertex="1" parent="1">
          <mxGeometry x="280" y="120" width="40" height="20" as="geometry" />
        </mxCell>
        <mxCell id="P0X2a0iMQnR3sYJKgMbi-25" value="Train" style="rounded=1;whiteSpace=wrap;html=1;fillColor=#d5e8d4;strokeColor=#82b366;fontSize=10;" vertex="1" parent="1">
          <mxGeometry x="240" y="120" width="40" height="20" as="geometry" />
        </mxCell>
      </root>
    </mxGraphModel>
  </diagram>
</mxfile>
